<svg width="153" height="47" viewBox="0 0 153 47" fill="none" xmlns="http://www.w3.org/2000/svg">
<g clip-path="url(#clip0_807_2638)">
<path d="M28.0778 2.13451V7.67722L14.1961 16.5208C13.8749 16.7254 13.6105 17.0078 13.4273 17.3417C13.2441 17.6756 13.1481 18.0502 13.148 18.4311V39.3225L2.44274 46.1392C2.21444 46.2846 1.95125 46.366 1.68072 46.3748C1.41018 46.3836 1.14225 46.3195 0.904959 46.1893C0.667666 46.0591 0.469735 45.8675 0.331877 45.6346C0.19402 45.4016 0.121303 45.1359 0.121338 44.8652V18.4317C0.121294 18.0507 0.217371 17.6758 0.400676 17.3418C0.583981 17.0078 0.848589 16.7254 1.17001 16.5208L25.7558 0.860557C25.9841 0.715201 26.2473 0.63387 26.5179 0.625067C26.7884 0.616264 27.0564 0.680313 27.2937 0.810517C27.531 0.94072 27.729 1.13229 27.8669 1.36521C28.0049 1.59812 28.0777 1.86381 28.0778 2.13451Z" fill="black"/>
<path d="M13.1482 39.3225L26.1713 31.0266V39.3225L15.4696 46.1391C15.2412 46.2846 14.9779 46.366 14.7073 46.3747C14.4366 46.3835 14.1686 46.3193 13.9313 46.189C13.694 46.0586 13.496 45.8668 13.3583 45.6337C13.2205 45.4006 13.1479 45.1347 13.1482 44.864V39.3225Z" fill="black"/>
<path d="M41.1003 2.13451V7.67722L28.0779 15.9725V7.67722L38.7783 0.860557C39.0067 0.715201 39.2699 0.63387 39.5404 0.625067C39.811 0.616264 40.0789 0.680313 40.3163 0.810517C40.5536 0.94072 40.7516 1.13229 40.8895 1.36521C41.0274 1.59812 41.1002 1.86381 41.1003 2.13451Z" fill="black"/>
<path d="M54.127 2.13389V28.568C54.127 28.949 54.0309 29.3239 53.8476 29.6579C53.6643 29.992 53.3997 30.2743 53.0783 30.4789L28.4925 46.1392C28.2642 46.2846 28.0009 46.366 27.7302 46.3748C27.4596 46.3835 27.1916 46.3194 26.9542 46.189C26.7169 46.0587 26.519 45.8669 26.3812 45.6338C26.2434 45.4007 26.1709 45.1348 26.1711 44.864V39.3225L40.0522 30.4789C40.3734 30.2742 40.6379 29.9918 40.821 29.6578C41.0042 29.3237 41.1003 28.949 41.1003 28.568V7.67963L51.8056 0.859937C52.0339 0.714531 52.2971 0.63316 52.5676 0.624338C52.8381 0.615516 53.1061 0.679567 53.3434 0.809789C53.5806 0.940012 53.7786 1.13162 53.9164 1.36456C54.0543 1.5975 54.127 1.86321 54.127 2.13389Z" fill="black"/>
<path d="M76.1826 10.8049C75.7102 12.459 74.4308 13.9436 71.541 13.9436C68.228 13.9436 66.5679 11.6435 66.5679 9.01118C66.5679 6.37888 68.4017 4.05322 71.6473 4.05322C74.5012 4.05322 75.8978 5.6235 76.2014 7.20045H74.1782C73.914 6.51247 73.3208 5.62471 71.6218 5.62471C69.7181 5.62471 68.6682 7.05836 68.6682 8.9371C68.6682 10.8158 69.6598 12.3813 71.6357 12.3813C73.1259 12.3813 73.761 11.7789 74.1739 10.8025L76.1826 10.8049Z" fill="black"/>
<path d="M84.8227 10.2893C84.8227 12.3465 83.4261 13.9326 80.894 13.9326C78.4001 13.9326 77.0903 12.2063 77.0903 10.296C77.0903 8.38564 78.4566 6.66114 80.9765 6.66114C83.5676 6.65871 84.8227 8.54352 84.8227 10.2893ZM79.028 10.2935C79.028 11.44 79.6959 12.4686 80.9583 12.4686C82.2608 12.4686 82.8662 11.4764 82.8662 10.3215C82.8662 9.16653 82.2487 8.11968 80.9371 8.11968C79.6255 8.11968 79.028 9.12949 79.028 10.2935Z" fill="black"/>
<path d="M86.0097 8.58601C86.0097 8.00308 86.0097 7.34728 85.9963 6.84632H87.852C87.8787 7.0546 87.9018 7.52034 87.9127 7.85856C88.2236 7.32299 88.8843 6.65869 90.2675 6.65869C91.9398 6.65869 92.9593 7.69097 92.9593 9.50595V13.7419H91.0399V9.81806C91.0399 8.91998 90.6932 8.16156 89.6178 8.16156C88.4689 8.16156 87.9224 8.98981 87.9224 10.3445V13.745H86.0115L86.0097 8.58601Z" fill="black"/>
<path d="M94.1074 6.84639H95.3862V4.75513H97.2965V6.84639H98.9567V8.25272H97.2965V11.4297C97.2965 12.0806 97.4441 12.3764 98.1388 12.3764C98.3457 12.3822 98.5528 12.366 98.7563 12.3278V13.6521C98.4029 13.7596 97.9463 13.7972 97.4732 13.7972C95.8605 13.7972 95.3862 13.0917 95.3862 11.743V8.25272H94.1074V6.84639Z" fill="black"/>
<path d="M101.816 10.752C101.877 11.7399 102.574 12.4917 103.721 12.4917C104.625 12.4917 105.078 12.1801 105.367 11.6792H107.268C106.867 12.839 105.85 13.9302 103.685 13.9302C100.974 13.9302 99.9207 12.0787 99.9207 10.3069C99.9207 8.32065 101.252 6.65869 103.662 6.65869C106.325 6.65869 107.357 8.52832 107.357 10.288C107.357 10.4441 107.357 10.5583 107.348 10.752H101.816ZM105.417 9.54724C105.369 8.92848 105.037 8.02069 103.656 8.02069C102.426 8.02069 101.923 8.72688 101.841 9.54724H105.417Z" fill="black"/>
<path d="M108.6 8.58601C108.6 8.00308 108.6 7.34728 108.586 6.84632H110.441C110.468 7.0546 110.491 7.52034 110.502 7.85856C110.812 7.32299 111.474 6.65869 112.857 6.65869C114.529 6.65869 115.549 7.69097 115.549 9.50595V13.7419H113.629V9.81806C113.629 8.91998 113.283 8.16156 112.207 8.16156C111.058 8.16156 110.512 8.98981 110.512 10.3445V13.745H108.601L108.6 8.58601Z" fill="black"/>
<path d="M108.599 23.0944C108.599 22.5115 108.599 21.8557 108.586 21.3547H110.441C110.468 21.563 110.491 22.0288 110.502 22.367C110.812 21.8314 111.474 21.1665 112.857 21.1665C114.529 21.1665 115.549 22.1988 115.549 24.0144V28.2497H113.629V24.3265C113.629 23.4284 113.283 22.6694 112.207 22.6694C111.058 22.6694 110.512 23.4976 110.512 24.8523V28.2528H108.601L108.599 23.0944Z" fill="black"/>
<path d="M116.643 6.84639H117.918V4.75513H119.829V6.84639H121.488V8.25272H119.829V11.4297C119.829 12.0806 119.976 12.3764 120.671 12.3764C120.878 12.3822 121.085 12.3659 121.289 12.3278V13.6521C120.935 13.7596 120.478 13.7972 120.005 13.7972C118.392 13.7972 117.918 13.0917 117.918 11.743V8.25272H116.643V6.84639Z" fill="black"/>
<path d="M68.9341 25.8645L67.9789 28.2497H65.9229L69.8303 18.7625H72.3557L76.4423 28.2497H74.2843L73.2751 25.8639L68.9341 25.8645ZM72.6988 24.2457C71.7273 21.9279 71.2597 20.7772 71.0356 20.0789H71.0223C70.8152 20.7596 70.2645 22.2613 69.4739 24.2457H72.6988Z" fill="black"/>
<path d="M83.8979 26.2416C83.8979 26.9096 83.8888 27.5824 83.9021 28.2503H82.0507C82.024 28.0621 82.0155 27.6917 82.0064 27.3304C81.6609 27.9479 81.1065 28.438 79.6382 28.438C78.1918 28.438 77.0618 27.6103 77.0618 25.5877V21.3547H78.963V25.2665C78.963 26.2222 79.3218 26.9308 80.3329 26.9308C81.5261 26.9308 81.9954 26.2331 81.9954 24.5196V21.3547H83.8966L83.8979 26.2416Z" fill="black"/>
<path d="M85.3982 21.3548H86.6734V19.2629H88.5843V21.3542H90.2444V22.7605H88.5873V25.9424C88.5873 26.5933 88.7349 26.8884 89.4289 26.8884C89.6361 26.8945 89.8433 26.8784 90.0471 26.8404V28.1648C89.6937 28.2723 89.2364 28.3099 88.7634 28.3099C87.1512 28.3099 86.6764 27.6043 86.6764 26.2557V22.7611H85.4012L85.3982 21.3548Z" fill="black"/>
<path d="M93.6596 18.2173V22.3361C93.9164 21.911 94.5236 21.1666 96.0277 21.1666C97.6897 21.1666 98.7049 22.1351 98.7049 24.1049V28.2498H96.7849V24.332C96.7849 23.3604 96.4916 22.6694 95.4065 22.6694C94.2401 22.6694 93.668 23.5596 93.668 24.9161V28.2498H91.7668V18.2173H93.6596Z" fill="black"/>
<path d="M116.643 21.3548H117.922V19.2629H119.833V21.3542H121.492V22.7605H119.833V25.9424C119.833 26.5933 119.98 26.8884 120.674 26.8884C120.881 26.8945 121.089 26.8784 121.292 26.8404V28.1648C120.939 28.2723 120.482 28.3099 120.009 28.3099C118.396 28.3099 117.922 27.6043 117.922 26.2557V22.7611H116.643L116.643 21.3548Z" fill="black"/>
<path d="M123 18.2173H124.902V19.9011H123V18.2173ZM123 21.3548H124.902V28.2498H123V21.3548Z" fill="black"/>
<path d="M133.567 25.9757C133.27 27.2612 132.16 28.438 129.995 28.438C127.404 28.438 126.23 26.7736 126.23 24.8001C126.23 22.905 127.561 21.1665 130.002 21.1665C132.605 21.1665 133.426 22.8534 133.529 23.664H131.628C131.465 23.2056 131.064 22.6147 130.009 22.6147C128.778 22.6147 128.167 23.5256 128.167 24.7831C128.167 25.9976 128.747 26.9806 130.004 26.9806C130.894 26.9806 131.365 26.6224 131.666 25.9757H133.567Z" fill="black"/>
<path d="M134.819 18.2173H136.72V19.9011H134.819V18.2173ZM134.819 21.3548H136.72V28.2498H134.819V21.3548Z" fill="black"/>
<path d="M138.087 21.3548H139.363V19.2629H141.273V21.3542H142.94V22.7605H141.28V25.9424C141.28 26.5933 141.427 26.8884 142.121 26.8884C142.328 26.8945 142.536 26.8784 142.739 26.8404V28.1648C142.386 28.2723 141.929 28.3099 141.456 28.3099C139.843 28.3099 139.369 27.6043 139.369 26.2557V22.7611H138.093L138.087 21.3548Z" fill="black"/>
<path d="M146.071 21.3547C147.346 24.4692 147.946 26.2192 148.103 26.7426H148.135C148.338 26.0564 148.929 24.1826 149.981 21.3547H151.924L149.495 27.467C148.296 30.5031 147.906 31.3812 145.748 31.3812C145.408 31.3821 145.069 31.3565 144.733 31.3047V29.7423C144.97 29.7681 145.209 29.7811 145.447 29.7811C146.384 29.7811 146.645 29.4551 147.09 28.5297L143.982 21.3547H146.071Z" fill="black"/>
<path d="M69.1461 33.2708V42.758H67.1538V33.2708H69.1461Z" fill="black"/>
<path d="M70.9106 37.601C70.9106 37.0181 70.9106 36.3623 70.8972 35.8613H72.7523C72.779 36.0696 72.8021 36.5354 72.813 36.8736C73.1233 36.338 73.7809 35.6731 75.1672 35.6731C76.8395 35.6731 77.8596 36.7054 77.8596 38.521V42.7563H75.9396V38.8349C75.9396 37.9368 75.5929 37.1778 74.5175 37.1778C73.3686 37.1778 72.8221 38.006 72.8221 39.3638V42.7612H70.9118L70.9106 37.601Z" fill="black"/>
<path d="M89.1807 32.7256H91.0831V34.4094H89.1819L89.1807 32.7256ZM89.1807 35.8631H91.0831V42.7581H89.1819L89.1807 35.8631Z" fill="black"/>
<path d="M99.4719 40.8975C99.4719 41.7227 99.512 42.6062 99.5296 42.758H97.7304C97.677 42.5661 97.6594 42.1113 97.6497 41.9079C97.2817 42.5412 96.4917 42.9469 95.1437 42.9469C93.2376 42.9469 92.4907 41.7877 92.4907 40.7074C92.4907 38.9113 94.081 38.4128 96.0934 38.4128H97.6114V38.1474C97.6114 37.5274 97.343 36.9937 96.1875 36.9937C95.1255 36.9937 94.885 37.4187 94.7805 37.8887H92.8793C92.9449 37.0186 93.5473 35.6724 96.1632 35.6724C99.0038 35.6724 99.4713 37.024 99.4713 38.1729L99.4719 40.8975ZM97.612 39.6466C97.4365 39.6369 96.9647 39.6369 96.1298 39.6369C94.8716 39.6369 94.3391 39.9472 94.3391 40.6085C94.3391 41.1319 94.7471 41.5624 95.6495 41.5624C97.0461 41.5624 97.612 40.8501 97.612 39.8124V39.6466Z" fill="black"/>
<path d="M100.601 35.863H101.88V33.7717H103.79V35.863H105.451V37.2693H103.79V40.4487C103.79 41.0997 103.938 41.3948 104.633 41.3948C104.84 41.4009 105.047 41.3848 105.25 41.3468V42.6705C104.897 42.7786 104.44 42.8163 103.967 42.8163C102.354 42.8163 101.88 42.1107 101.88 40.7621V37.2693H100.601V35.863Z" fill="black"/>
<path d="M106.959 32.7256H108.86V34.4094H106.959V32.7256ZM106.959 35.8631H108.86V42.7581H106.959V35.8631Z" fill="black"/>
<path d="M112.032 35.863C112.876 38.1838 113.753 40.2702 113.999 41.0888H114.021C114.254 40.3146 114.726 39.0352 115.965 35.863H117.902L114.998 42.758H112.887L109.986 35.863H112.032Z" fill="black"/>
<path d="M119.851 39.7687C119.912 40.756 120.609 41.5078 121.756 41.5078C122.66 41.5078 123.114 41.1969 123.402 40.6959H125.304C124.902 41.8557 123.885 42.9463 121.721 42.9463C119.009 42.9463 117.956 41.0949 117.956 39.3236C117.956 37.3368 119.287 35.6748 121.698 35.6748C124.361 35.6748 125.393 37.5444 125.393 39.3048C125.393 39.4608 125.393 39.575 125.383 39.7687H119.851ZM123.452 38.564C123.404 37.9452 123.072 37.038 121.691 37.038C120.461 37.038 119.958 37.7442 119.876 38.564H123.452Z" fill="black"/>
<path d="M79.5647 32.7256H81.4659V34.4094H79.5647V32.7256ZM79.5647 35.8631H81.4659V42.7581H79.5647V35.8631Z" fill="black"/>
<path d="M82.8328 35.863H84.1116V33.7717H86.0219V35.863H87.6826V37.2693H86.0225V40.4487C86.0225 41.0997 86.1701 41.3948 86.8647 41.3948C87.0717 41.4009 87.2787 41.3848 87.4822 41.3468V42.6705C87.1288 42.7786 86.6716 42.8163 86.1986 42.8163C84.5864 42.8163 84.1122 42.1107 84.1122 40.7621V37.2693H82.8334L82.8328 35.863Z" fill="black"/>
<path d="M101.816 25.2604C101.877 26.2477 102.574 26.9995 103.721 26.9995C104.625 26.9995 105.078 26.6886 105.367 26.1876H107.268C106.867 27.3474 105.85 28.438 103.685 28.438C100.974 28.438 99.9207 26.5872 99.9207 24.8153C99.9207 22.8285 101.252 21.1665 103.662 21.1665C106.325 21.1665 107.357 23.0367 107.357 24.7965C107.357 24.9525 107.357 25.0667 107.348 25.2604H101.816ZM105.417 24.0557C105.369 23.4369 105.037 22.5297 103.656 22.5297C102.426 22.5297 101.923 23.2359 101.841 24.0557H105.417Z" fill="black"/>
</g>
<defs>
<clipPath id="clip0_807_2638">
<rect width="152.048" height="46" fill="white" transform="translate(0 0.499756)"/>
</clipPath>
</defs>
</svg>
